<svg width="14" height="11" viewBox="0 0 14 11" fill="none" xmlns="http://www.w3.org/2000/svg">
<path d="M5.38302 10.5H5.38462H5.39211V10.5L5.39831 10.5C5.57029 10.4978 5.73998 10.4602 5.89673 10.3894L5.69096 9.93371L5.89674 10.3894C6.05293 10.3189 6.19294 10.2169 6.30802 10.0899C6.30843 10.0895 6.30884 10.089 6.30925 10.0886L13.1366 2.62701C13.253 2.5102 13.345 2.37145 13.4074 2.21875C13.4717 2.0613 13.5032 1.89236 13.4998 1.72231C13.4963 1.55225 13.4582 1.38471 13.3876 1.22996C13.317 1.07521 13.2155 0.936558 13.0894 0.822486C12.9633 0.708414 12.8152 0.621332 12.6542 0.566559C12.4932 0.511785 12.3227 0.490468 12.1532 0.503907C11.9837 0.517345 11.8187 0.565259 11.6684 0.644725C11.5233 0.721381 11.3949 0.825844 11.2903 0.952113L5.37232 7.4189L2.65942 4.5314C2.65941 4.53139 2.6594 4.53138 2.6594 4.53137C2.4327 4.29006 2.11944 4.14869 1.78857 4.13818C1.45769 4.12767 1.13608 4.24888 0.894509 4.47531C0.652919 4.70175 0.511171 5.01491 0.500632 5.34593C0.490093 5.67694 0.611637 5.99848 0.838355 6.23983L0.838662 6.24016L4.47209 10.1011C4.47251 10.1015 4.47292 10.102 4.47333 10.1024C4.5895 10.2272 4.72999 10.3268 4.88613 10.3952L5.08669 9.93714L4.88614 10.3952C5.04284 10.4638 5.21196 10.4994 5.38302 10.5Z" fill="#00BC9A" stroke="#00BC9A"/>
</svg>
