<svg width="32" height="32" viewBox="0 0 32 32" fill="none" xmlns="http://www.w3.org/2000/svg">
<path d="M29.4542 21.6927V10.321C29.4542 9.06701 28.7833 7.90884 27.6956 7.28494L17.741 1.57522C16.6624 0.956614 15.3367 0.956615 14.2582 1.57523L4.30353 7.28494C3.21578 7.90885 2.54492 9.067 2.54492 10.321V21.6927C2.54492 22.9478 3.21693 24.1068 4.30616 24.7303L14.2608 30.4286C15.338 31.0452 16.6611 31.0452 17.7383 30.4286L27.693 24.7303C28.7822 24.1068 29.4542 22.9478 29.4542 21.6927Z" fill="#00C19E" stroke="#00C19E" stroke-linejoin="round"/>
<path d="M15.2272 17.8177L20.2725 11.1924C20.7179 10.6071 21.5525 10.4924 22.1405 10.9391C22.7272 11.3857 22.8405 12.2204 22.3939 12.8071L16.3019 20.8071C16.0525 21.1364 15.6632 21.3311 15.2512 21.3324H15.2419C14.8312 21.3324 14.4445 21.1444 14.1912 20.8217L10.9499 16.6791C10.4952 16.1004 10.5979 15.2617 11.1779 14.8084C11.7565 14.3537 12.5965 14.4551 13.0499 15.0364L15.2272 17.8177Z" fill="white"/>
</svg>
